<svg xmlns="http://www.w3.org/2000/svg" width="714.34" height="1083.432" viewBox="0 0 714.34 1083.432">
  <g id="button" transform="translate(0.01)">
    <path id="Path_12" data-name="Path 12" d="M276.885.041Q414.563.041,552.236,0c1.4,0,1.626.312,1.626,1.655q-.061,84.638,0,169.273c0,1.355-.247,1.651-1.635,1.651q-275.348-.061-550.7,0c-1.3,0-1.537-.329-1.537-1.566q.061-84.723,0-169.443C-.006.32.25,0,1.535.008q137.677.055,275.35.032Zm71.3,51.279c1.939-4.194,3.723-8.27,7.333-11.174a14.87,14.87,0,0,1,7.937-3.646c3.825-.312,7.718-.381,11.466.888.677.231,1.42.373,1.6-.576.2-1.059-.487-1.229-1.4-1.367-3.448-.519-6.859-1.314-10.314-1.708a29.114,29.114,0,0,0-9.71.134c-4.04.913-7.491,3.143-10.8,5.548-7.1,5.159-13.441,11.312-20.989,15.891a27.077,27.077,0,0,1-10.935,3.869,27.64,27.64,0,0,1-10.221-.3c-4.891-1.282-10.071-1.639-14.508-4.421a3.888,3.888,0,0,0-.637-.2c-4.441-1.72-9.085-1.6-13.741-1.618a27.8,27.8,0,0,0-8.055,1.375c-2.576.763-4.863,2.158-7.556,2.851-5.484,1.416-10.874,2.746-16.6,2.47a26.063,26.063,0,0,1-9.957-2.47c-5.581-2.644-10.4-6.5-15.141-10.4a125.539,125.539,0,0,0-13.891-10.282c-4.79-2.949-9.925-2.916-15.1-2.527-3.679.276-7.3,1.217-10.959,1.8-.831.134-1.257.483-1.152,1.3.114.868.795.921,1.407.7,3.342-1.192,6.806-1.067,10.27-1.05,3.719.016,6.733,1.716,9.527,3.918,3.589,2.831,5.24,6.948,7.175,11a24.614,24.614,0,0,1-4.23-.3c-2.1-.511-4.157-1.164-5.439-3.233-.994-1.6-2.754-2.04-4.514-2.17-1.566-.114-3.155.049-4.725-.036A36.755,36.755,0,0,0,170.8,47.555c-.795.26-1.428.556-1.294,1.428.146.969,1.055.775,1.647.665a35.753,35.753,0,0,1,7.532-.349,14.555,14.555,0,0,1,7.37,2.352c3.253,2.044,6.335,4.352,10.387,4.721a46.452,46.452,0,0,1,5.974,1.363c-2.142.949-4.056.373-5.747.819-3.062.811-6.068.142-8.976-.235-6.189-.8-11.616.118-16.252,4.555-1.46,1.4-1.557,3.1-1.671,4.871a.725.725,0,0,0,.6.876c.434.073.681-.13.949-.5a7.064,7.064,0,0,1,7.714-3.022c1.314.276,2.632.515,3.942.795a29.231,29.231,0,0,1,12.468,5.561c1.018.815,2.125,1.72,1.217,3.224a9.176,9.176,0,0,1-7.585,4.827c-3.03.154-6.076.406-9.1-.369-3.792-.973-7.731-1.728-10.736-4.372-6.566-5.776-14.492-7.5-22.835-8.071a31.457,31.457,0,0,0-7.548.377c-3.228.56-6.489.969-9.742,1.371a23.657,23.657,0,0,1-8.055-.012,86.605,86.605,0,0,1-12.342-4.2c-3.164-1.249-6.412-2.275-9.637-3.362-.584-.2-1.3-.276-1.594.483-.316.815.385,1.071.925,1.334a24.768,24.768,0,0,0,2.738,1.245c2.746.961,5.431,1.935,7.5,4.194a9.347,9.347,0,0,0,3.865,2.288c2.941,1.03,5.751,2.377,8.651,3.5a21.671,21.671,0,0,0,7.491,1.444c4.547.118,8.992-1.111,13.555-.815,2.961.195,4.036.815,4.989,3.683,1.026,3.082-.345,4.993-3.589,4.786a13.4,13.4,0,0,1-6.761-2.174,9.527,9.527,0,0,0-13.315,2.417c-.434.661-.75.815-1.383.211a6.639,6.639,0,0,0-4.766-1.647,214.953,214.953,0,0,0-22.628.884c-1.322.114-2.624.572-3.938.58-1.582.008-2.847,1.407-4.287,1.14-2.478-.454-4.928-.077-7.382-.247-.9-.061-1.683-.041-1.675,1.257.008,1.351.9,1.107,1.732,1.209,3.488.418,6.932-.349,10.537.625,5.228,1.415,10.789,1.367,16.228,1.622,3.987.187,7.99-.016,11.985.065a5.149,5.149,0,0,0,3.853-1.338c.945-.909,1.314-.6,1.983.292a9.267,9.267,0,0,0,11.673,2.835,26.663,26.663,0,0,1,3.748-1.829,25.223,25.223,0,0,1,4.169-1.055c2.178-.26,3.93.783,4.182,2.223.357,2.032-1.294,5.423-3,5.788-3.768.811-7.552.353-11.32-.15a36.346,36.346,0,0,0-7.885-.053c-2.482.207-4.685,1.4-6.919,2.328-3.326,1.391-6.911,2.332-9.746,4.685-1.468,1.217-2.807,2.608-4.652,3.2a34.429,34.429,0,0,0-5.394,2.182c-.56.292-1.48.446-1.148,1.351s1.111.6,1.849.41a116.034,116.034,0,0,0,14.666-5.26c6.287-2.58,12.626-2.795,19.2-1.626a57.514,57.514,0,0,0,12.484,1.209c2.2-.093,4.348-.548,6.518-.738a29.8,29.8,0,0,0,15.51-6.189,22.252,22.252,0,0,1,5.788-3.626c4.685-1.63,9.414-2.774,14.5-2.405a10.91,10.91,0,0,1,8.1,4.032c1.306,1.578,1.16,2.75-.43,4.032-.438.353-.921.641-1.371.977-4.015,3.009-8.761,4.125-13.518,5.212-3.764.86-7.219.754-9.576-2.945a.758.758,0,0,0-.9-.288.739.739,0,0,0-.539.767,6.006,6.006,0,0,0,1.136,4.421c4.275,4.709,9.831,6.116,15.883,5.265a68.487,68.487,0,0,1,13.3-.28,2.559,2.559,0,0,1,.767.3c.191.081.458.093.422.414-.028.272-.223.357-.45.41-.982.215-1.955.462-2.941.641-3.468.633-6.8,1.48-9.718,3.711A17.527,17.527,0,0,1,176.3,121.6c-1.841-.1-3.654-.5-5.5-.422-.564.024-1.2-.065-1.294.726a1.174,1.174,0,0,0,.872,1.294,42.618,42.618,0,0,0,9.126,1.971c3.139.2,6.3.1,9.45.024a5.827,5.827,0,0,0,4.7-2.17,9.892,9.892,0,0,1,9.677-3.261c-1.923,2.344-2.3,5.423-4.311,7.7-3.6,4.076-7.629,7.114-13.437,6.988-3.131-.069-6.238-.041-9.256-1.05-.592-.2-1.306-.219-1.444.653-.13.823.284,1.359,1.132,1.265a7.915,7.915,0,0,1,2.279.438c2.949.479,5.877,1.241,8.846,1.432,3.005.195,6.092.495,9.069-.183,4.1-.933,7.593-3.172,10.947-5.605,7.094-5.155,13.384-11.369,20.989-15.846a28.373,28.373,0,0,1,13.084-4.06,36.643,36.643,0,0,1,13.689,1.76c2.32.783,4.887.677,7.013,1.967a21.168,21.168,0,0,0,11.344,2.945c2.8-.012,5.589.1,8.4-.174,4.478-.434,8.079-3.212,12.411-4.141,5.228-1.123,10.31-2.62,15.765-2.389a27.326,27.326,0,0,1,11.069,2.815c5.281,2.608,9.921,6.242,14.431,9.99,4.656,3.869,9.239,7.824,14.621,10.675a18.618,18.618,0,0,0,8.428,2.393c5.857.15,11.494-1.14,17.209-1.991a1,1,0,0,0,.961-1.286c-.11-.779-.71-.8-1.286-.7-.653.114-1.29.3-1.931.479a22.18,22.18,0,0,1-10.5.4c-7.844-1.679-11.884-7.585-14.573-14.78a28.062,28.062,0,0,1,3.922.32c2.182.487,4.279,1.148,5.621,3.253,1.046,1.647,2.859,2.077,4.689,2.162,1.967.089,3.942-.061,5.909.036a35.848,35.848,0,0,0,12.184-1.931c.8-.239,1.436-.556,1.33-1.407-.118-.965-1.026-.779-1.63-.685a44.135,44.135,0,0,1-7.532.329,14.88,14.88,0,0,1-7.39-2.332c-2.815-1.675-5.35-3.881-8.732-4.461-1.809-.308-3.61-.669-5.4-1.059-.377-.081-1.059-.02-.977-.657.061-.47.616-.629,1.055-.645a14.551,14.551,0,0,0,3.529-.093c3.046-.945,6.059-.105,8.972.256,6.124.763,11.494-.174,16.118-4.522,1.545-1.452,1.651-3.168,1.712-5.009a.71.71,0,0,0-.5-.787.844.844,0,0,0-1.014.385c-1.943,2.868-4.652,3.76-7.974,3.074-1.2-.247-2.417-.454-3.618-.718a29.4,29.4,0,0,1-12.618-5.626c-.953-.779-2.093-1.667-1.249-3.078,1.732-2.884,4.246-4.8,7.694-4.96,2.973-.142,5.962-.389,8.939.365,3.849.973,7.84,1.74,10.9,4.413,6.575,5.739,14.455,7.536,22.814,8.035a33.621,33.621,0,0,0,7.544-.365c3.233-.535,6.485-.957,9.734-1.363a23.761,23.761,0,0,1,8.055.008,73.061,73.061,0,0,1,12.026,4.084c3.253,1.363,6.611,2.405,9.969,3.456.588.183,1.286.3,1.561-.495.247-.714-.3-1.006-.836-1.237-1.574-.685-3.115-1.472-4.741-2.008a11.786,11.786,0,0,1-4.867-2.859,14.135,14.135,0,0,0-4.616-2.953c-2.5-1.079-5.054-2.036-7.56-3.1a21.8,21.8,0,0,0-8.777-1.789c-4.482.016-8.886,1.063-13.393.779-2.981-.187-3.987-.8-4.867-3.76-.929-3.123.308-4.835,3.533-4.656a13.155,13.155,0,0,1,6.773,2.133c4.425,3.082,10.663,1.821,13.311-2.4.584-.933.965-.58,1.537-.114a5.146,5.146,0,0,0,3.127,1.46,200.541,200.541,0,0,0,24.335-.823c2.34-.227,4.774-.357,6.956-1.489a1.828,1.828,0,0,1,1.1-.292c2.551.665,5.143.134,7.706.3.783.053,1.261-.178,1.265-1.128,0-.929-.292-1.347-1.253-1.334-2.194.028-4.388.041-6.583-.012-.612-.016-1.059.543-1.764.235a18.21,18.21,0,0,0-6.3-1.407c-4.214-.256-8.408-.876-12.622-1.083-3.873-.191-7.767.028-11.648-.073a5.766,5.766,0,0,0-4.165,1.416c-.811.718-1.213.7-1.9-.251a9.055,9.055,0,0,0-11.912-2.758,31.277,31.277,0,0,1-6.806,2.648c-2.064.543-4.214-.138-4.9-1.578-.827-1.732.86-5.853,2.77-6.315,3.813-.929,7.637-.337,11.462.162a33.442,33.442,0,0,0,7.876,0c2.446-.26,4.6-1.371,6.777-2.288,3.318-1.391,6.9-2.332,9.746-4.685,1.464-1.213,2.795-2.608,4.656-3.2a40.622,40.622,0,0,0,5.394-2.174c.637-.3,1.557-.548,1.107-1.525-.361-.779-1.071-.466-1.756-.284a117.875,117.875,0,0,0-14.654,5.277c-6.222,2.575-12.521,2.778-19.034,1.663a60.186,60.186,0,0,0-12.48-1.29c-2.271.085-4.49.592-6.725.791a29.4,29.4,0,0,0-15.485,6.185,22.2,22.2,0,0,1-6.587,3.934,36.306,36.306,0,0,1-13.551,2.073,10.983,10.983,0,0,1-8.274-4.036c-1.278-1.549-1.123-2.717.466-4,.438-.349.929-.637,1.371-.977,4.04-3.111,8.878-4.161,13.681-5.285,3.707-.868,7.073-.592,9.434,2.981a.709.709,0,0,0,1.347-.324,5.237,5.237,0,0,0-.856-4.3,15.909,15.909,0,0,0-11.393-5.605,56.283,56.283,0,0,0-10.5.767c-2.077.312-4.1-.535-6.177-.381-1.014.077-2.02.1-2.673-1.006,1.14-.251,2.32-.543,3.508-.767,3.468-.649,6.83-1.44,9.73-3.691a17.855,17.855,0,0,1,12.2-3.8,48.078,48.078,0,0,0,5.159.466c.564-.032,1.213.057,1.343-.685a1.192,1.192,0,0,0-.982-1.363,39.11,39.11,0,0,0-8.793-1.975,88.51,88.51,0,0,0-9.787-.02,5.072,5.072,0,0,0-4.3,1.89c-2.421,3.565-6.092,3.6-9.876,3.792Zm-267.956,10c.738,0,1.018.008,1.3,0,.572-.016,1.184-.02,1.33-.742.15-.75-.264-1.144-.953-1.334-.32-.089-.617-.28-.937-.349a38.918,38.918,0,0,0-15.157-.3c-2.348.438-4.822.913-6.676,2.535a30.139,30.139,0,0,1-4.222,2.957c-2.762,1.7-6.011,2.628-8.416,4.835a13.043,13.043,0,0,1-6.725,3.111c-2.7.507-5.411.949-8.128.138-2.036-.608-4.052-1.282-6.1-1.854-.665-.187-1.562-.406-1.854.56-.272.9.3,1.379,1.107,1.785.852.43,1.756.235,2.62.487A40.078,40.078,0,0,0,37.62,74.9c5.93.142,11.835.7,17.765.791a9.852,9.852,0,0,0,8.712-6.27,21.928,21.928,0,0,1,2.137-4.539,6,6,0,0,1,4.721-3.119c3.241-.243,6.441-1.5,9.28-.446Zm-8.209,51.453a29.439,29.439,0,0,0,9.629-1.042c.612-.183,1.367-.4,1.229-1.326s-.88-.933-1.553-.88a24.8,24.8,0,0,1-7.1.016c-2.58-.535-5.407-.26-7.317-2.665a16.149,16.149,0,0,1-2.689-5.163,10.051,10.051,0,0,0-8.878-6.542c-3.91.028-7.8.633-11.685.657A70.217,70.217,0,0,0,29.825,97.1c-1.687.349-3.366.75-5.041,1.164a1.293,1.293,0,0,0-1.075,1.764c.312.921,1.16.694,1.874.527a10.286,10.286,0,0,0,1.265-.422c3.93-1.44,7.921-2.515,12.135-1.452,1.979.5,4.157.434,5.816,1.918a25.387,25.387,0,0,0,5.865,3.9,36.938,36.938,0,0,1,7.512,4.364,11.794,11.794,0,0,0,4.259,2.523c3.237.909,6.506,1.748,9.6,1.379Zm406.9.049c5.4-.146,10.533-.73,15.055-4.433,4.084-3.342,9.576-4.636,13.437-8.465a.689.689,0,0,1,.312-.118c4.555-1.237,9.105-2.4,13.81-.621,1.513.572,3.074,1.022,4.636,1.448a1.172,1.172,0,0,0,1.57-.6c.32-.8-.166-1.282-.763-1.659a2.713,2.713,0,0,0-.929-.349c-4.048-.754-8.063-2-12.172-2.06-6.043-.093-12.054-.714-18.093-.783a9.766,9.766,0,0,0-8.144,5.573,40,40,0,0,1-2.34,4.993,5.187,5.187,0,0,1-3.472,2.941c-3.289.592-6.554,1.679-9.994.86a8.608,8.608,0,0,0-2.519.024.893.893,0,0,0-.836.726.967.967,0,0,0,.531,1.132,6.788,6.788,0,0,0,1.415.511,32.026,32.026,0,0,0,8.5.876Zm31.417-37.866c3.22.337,6.347-.446,9.495-.856,2.194-.284,4.34-.929,6.506-1.411.913-.2,1.691-.657,1.424-1.687-.3-1.152-1.278-.848-2.085-.616-1.448.422-2.867.937-4.324,1.326-5.832,1.557-11.356,1.221-16.28-2.73a23.3,23.3,0,0,0-4.311-2.612,39.533,39.533,0,0,1-7.37-4.255,14.545,14.545,0,0,0-4.234-2.6c-4.591-1.622-9.369-1.683-14.127-1.355a15.105,15.105,0,0,0-5.244.933c-.649.288-1.525.462-1.3,1.456.2.868,1,.811,1.659.763a25.756,25.756,0,0,1,6.932-.016c2.649.523,5.548.28,7.463,2.746a18.24,18.24,0,0,1,2.742,5.317,9.735,9.735,0,0,0,8.842,6.307c4.741-.146,9.475-.466,14.212-.714ZM163.8,44.615a3.107,3.107,0,0,0,.337,0c.714-.077,1.8.337,1.768-.917-.028-1.115-1.034-.823-1.7-.795a4.349,4.349,0,0,1-3.545-1.562c-2.2-2.421-4.084-5.244-7.653-5.9-.146-.028-.26-.207-.393-.308-5.532-4.088-11.778-4.044-18.15-3.046a25.342,25.342,0,0,0-7.069,2.571,16.107,16.107,0,0,1-10.111,1.448c-2.778-.519-5.577-.86-8.359-1.318-.535-.089-1.2-.13-1.31.665-.085.629.361.791.888,1a36.334,36.334,0,0,0,11.628,2.21c5.666.3,11.361.081,17.043.069a9.208,9.208,0,0,0,1.667-.158c3.488-.657,6.915-1.529,10.541-1.436,3.667.093,6.708.9,8.911,4.165,1.233,1.825,2.92,3.472,5.512,3.3ZM423.4,38.75c3.326-.2,7.325.381,11.283-.446,2.721-.568,5.54-.661,8.14-1.817.56-.247,1.091-.389.933-1.123-.146-.681-.758-.673-1.225-.568-2.117.483-4.3.337-6.42.9a17.688,17.688,0,0,1-12.375-1.168c-8.266-3.841-16.475-4.607-24.635.385-2.434,1.489-5.305,2.219-6.992,4.887-1.253,1.979-3.03,3.472-5.7,3.091a.807.807,0,0,0-.977.884.834.834,0,0,0,.88.827c1.837.138,3.61,0,5-1.391.949-.953,1.854-1.951,2.726-2.973a6.486,6.486,0,0,1,2.827-2.3,21.1,21.1,0,0,1,9.929-.475c3.784.637,7.52,1.578,11.417,1.294,1.509-.11,3.034-.016,5.2-.016ZM127.933,132.1c-3.164.235-7.106-.4-11.008.414-2.831.588-5.755.718-8.465,1.882-.531.227-.941.414-.844,1.03.122.779.783.791,1.314.669,2.162-.5,4.4-.389,6.558-1.01a15.541,15.541,0,0,1,11.255.872,30.5,30.5,0,0,0,15.055,3.289,17.3,17.3,0,0,0,8.562-2.288,16.055,16.055,0,0,1,4.762-2.405,4.479,4.479,0,0,0,2.259-1.351c2.283-2.3,3.748-5.82,7.945-5.273.406.053.637-.434.6-.868a.75.75,0,0,0-.726-.783c-1.878-.13-3.723-.1-5.151,1.387q-1.393,1.448-2.7,2.985a6.39,6.39,0,0,1-2.653,2.227,20.309,20.309,0,0,1-10.063.531c-3.723-.665-7.394-1.61-11.235-1.33-1.566.114-3.147.02-5.471.02Zm259.776-5.832c-.247,0-.361-.012-.475,0-.718.077-1.813-.324-1.789.9.02,1.055,1.03.86,1.712.8a4.03,4.03,0,0,1,2.681.767,16.734,16.734,0,0,1,2.9,3.018c.949,1.079,1.764,2.377,3.293,2.742a13.507,13.507,0,0,1,2.742,1.188c2.292,1.111,4.291,2.762,6.944,3.228,2.588.458,5.147.138,7.714.272a16.156,16.156,0,0,0,7.309-1.57c3.589-1.566,7.118-3.261,11.186-3.078,3.4.15,6.639,1.318,10.03,1.521.645.037,1.468.361,1.764-.491.329-.937-.519-1.075-1.148-1.278a43.619,43.619,0,0,0-12.667-2.166c-4.948-.089-9.9,0-14.853-.032a18.074,18.074,0,0,0-5.106.754,29.047,29.047,0,0,1-9.957.815,7.791,7.791,0,0,1-6.343-3.488,13.513,13.513,0,0,0-1.9-2.137,4.933,4.933,0,0,0-4.04-1.764Z" fill="none"/>
    <path id="Path_13" data-name="Path 13" d="M461.709,100.268c3.788-.191,7.459-.223,9.876-3.792a5.067,5.067,0,0,1,4.3-1.89,88.508,88.508,0,0,1,9.787.02,39.109,39.109,0,0,1,8.793,1.975,1.191,1.191,0,0,1,.982,1.363c-.126.742-.779.653-1.342.685a48.077,48.077,0,0,1-5.159-.466,17.882,17.882,0,0,0-12.2,3.8c-2.9,2.251-6.262,3.046-9.73,3.691-1.192.223-2.369.515-3.508.767.653,1.1,1.659,1.079,2.673,1.006,2.077-.154,4.1.694,6.177.381a56.629,56.629,0,0,1,10.5-.767,15.925,15.925,0,0,1,11.393,5.605,5.236,5.236,0,0,1,.856,4.3.709.709,0,0,1-1.347.324c-2.361-3.573-5.727-3.845-9.434-2.981-4.8,1.123-9.641,2.174-13.68,5.285-.446.341-.933.629-1.371.977-1.594,1.278-1.744,2.446-.466,4a10.982,10.982,0,0,0,8.274,4.036,36.293,36.293,0,0,0,13.551-2.073,22.17,22.17,0,0,0,6.587-3.934A29.436,29.436,0,0,1,512.7,116.39c2.239-.2,4.453-.706,6.725-.791a60.463,60.463,0,0,1,12.48,1.29c6.514,1.111,12.813.913,19.034-1.663a118.108,118.108,0,0,1,14.654-5.277c.685-.183,1.4-.491,1.756.284.45.977-.47,1.221-1.107,1.525a40.616,40.616,0,0,1-5.394,2.174c-1.862.588-3.192,1.983-4.656,3.2-2.843,2.352-6.429,3.289-9.746,4.685-2.178.913-4.336,2.028-6.777,2.288a33.442,33.442,0,0,1-7.877,0c-3.825-.5-7.649-1.091-11.462-.162-1.91.466-3.6,4.583-2.77,6.315.685,1.436,2.835,2.121,4.9,1.578a31.275,31.275,0,0,0,6.806-2.648,9.056,9.056,0,0,1,11.912,2.758c.685.949,1.087.969,1.9.251a5.784,5.784,0,0,1,4.165-1.416c3.881.1,7.775-.118,11.649.073,4.214.207,8.408.827,12.622,1.083a18.1,18.1,0,0,1,6.3,1.407c.7.308,1.152-.251,1.764-.235,2.194.053,4.388.041,6.583.012.961-.012,1.253.406,1.253,1.334,0,.949-.483,1.176-1.265,1.128-2.563-.166-5.151.365-7.706-.3a1.787,1.787,0,0,0-1.1.292c-2.182,1.132-4.616,1.261-6.956,1.489a200.543,200.543,0,0,1-24.335.823,5.146,5.146,0,0,1-3.127-1.46c-.576-.47-.953-.819-1.537.114-2.648,4.222-8.886,5.484-13.311,2.4a13.155,13.155,0,0,0-6.773-2.133c-3.224-.178-4.461,1.537-3.533,4.656.88,2.961,1.886,3.573,4.867,3.76,4.506.284,8.907-.767,13.393-.779a21.866,21.866,0,0,1,8.777,1.789c2.507,1.067,5.062,2.024,7.56,3.1a14.157,14.157,0,0,1,4.616,2.953,11.805,11.805,0,0,0,4.867,2.859c1.622.535,3.168,1.322,4.741,2.008.531.231,1.083.523.836,1.237-.276.8-.973.677-1.562.495-3.358-1.05-6.717-2.093-9.969-3.456a73.063,73.063,0,0,0-12.026-4.084,23.865,23.865,0,0,0-8.055-.008c-3.253.4-6.506.823-9.734,1.363a33.632,33.632,0,0,1-7.544.365c-8.359-.495-16.24-2.292-22.814-8.035-3.058-2.669-7.049-3.439-10.9-4.413-2.977-.75-5.962-.507-8.939-.365a9.292,9.292,0,0,0-7.694,4.96c-.848,1.407.292,2.3,1.249,3.078a29.4,29.4,0,0,0,12.618,5.626c1.2.264,2.413.47,3.618.718,3.322.685,6.031-.2,7.974-3.074a.848.848,0,0,1,1.014-.385.71.71,0,0,1,.5.787c-.057,1.837-.166,3.557-1.712,5.009-4.624,4.348-9.994,5.281-16.118,4.522-2.912-.361-5.922-1.2-8.972-.256a14.344,14.344,0,0,1-3.529.093c-.434.016-.994.174-1.055.645-.081.637.6.576.977.657,1.793.389,3.593.75,5.4,1.059,3.383.58,5.918,2.786,8.732,4.461a14.88,14.88,0,0,0,7.39,2.332,44.137,44.137,0,0,0,7.532-.329c.6-.093,1.513-.28,1.63.685.105.852-.527,1.168-1.33,1.407a35.849,35.849,0,0,1-12.184,1.931c-1.963-.1-3.942.053-5.909-.036-1.825-.081-3.638-.515-4.689-2.162-1.338-2.105-3.439-2.766-5.621-3.253a27.463,27.463,0,0,0-3.922-.32c2.685,7.2,6.729,13.1,14.573,14.78a22.18,22.18,0,0,0,10.5-.4,18.626,18.626,0,0,1,1.931-.479c.576-.1,1.176-.077,1.286.7a1,1,0,0,1-.961,1.286c-5.711.852-11.352,2.137-17.209,1.991a18.618,18.618,0,0,1-8.428-2.393c-5.386-2.855-9.969-6.806-14.621-10.675-4.51-3.748-9.15-7.382-14.431-9.99a27.408,27.408,0,0,0-11.068-2.815c-5.451-.231-10.537,1.265-15.765,2.389-4.332.933-7.933,3.707-12.411,4.141-2.815.272-5.605.162-8.4.174a21.168,21.168,0,0,1-11.344-2.945c-2.125-1.29-4.693-1.188-7.013-1.967a36.55,36.55,0,0,0-13.689-1.76,28.373,28.373,0,0,0-13.084,4.06c-7.6,4.478-13.9,10.691-20.989,15.846-3.35,2.438-6.85,4.676-10.947,5.605-2.977.677-6.064.377-9.069.183-2.965-.191-5.893-.953-8.846-1.432a7.942,7.942,0,0,0-2.279-.438c-.848.1-1.261-.442-1.132-1.265.138-.876.852-.852,1.444-.653,3.018,1.01,6.124.982,9.256,1.05,5.808.126,9.84-2.912,13.437-6.988,2.008-2.275,2.389-5.358,4.311-7.7a9.9,9.9,0,0,0-9.677,3.261,5.827,5.827,0,0,1-4.7,2.17c-3.151.077-6.311.174-9.45-.024a42.673,42.673,0,0,1-9.126-1.971,1.174,1.174,0,0,1-.872-1.294c.093-.791.73-.7,1.294-.726,1.849-.081,3.663.324,5.5.422a17.527,17.527,0,0,0,11.88-3.752c2.92-2.231,6.246-3.078,9.718-3.711.986-.178,1.959-.426,2.94-.641.227-.049.418-.134.45-.41.036-.32-.227-.333-.422-.414a2.518,2.518,0,0,0-.767-.3,68.486,68.486,0,0,0-13.3.28c-6.047.852-11.608-.556-15.883-5.265a6.006,6.006,0,0,1-1.136-4.421.739.739,0,0,1,.539-.767.752.752,0,0,1,.9.288c2.356,3.7,5.812,3.808,9.576,2.945,4.758-1.087,9.5-2.206,13.518-5.212.45-.337.937-.629,1.371-.977,1.59-1.286,1.736-2.458.43-4.032a10.9,10.9,0,0,0-8.1-4.032c-5.082-.369-9.811.775-14.5,2.405a22.252,22.252,0,0,0-5.788,3.626,29.808,29.808,0,0,1-15.51,6.189c-2.17.191-4.32.645-6.518.738a57.488,57.488,0,0,1-12.484-1.209c-6.575-1.164-12.914-.953-19.2,1.626a116.036,116.036,0,0,1-14.666,5.26c-.742.195-1.517.5-1.849-.41s.588-1.059,1.148-1.351a34.589,34.589,0,0,1,5.394-2.182c1.845-.6,3.184-1.987,4.652-3.2,2.835-2.352,6.425-3.293,9.746-4.685,2.235-.933,4.433-2.121,6.919-2.328a36.344,36.344,0,0,1,7.885.053c3.768.5,7.552.961,11.32.15,1.708-.369,3.362-3.76,3-5.788-.256-1.444-2-2.482-4.182-2.223a25.224,25.224,0,0,0-4.169,1.055,26.665,26.665,0,0,0-3.748,1.829,9.263,9.263,0,0,1-11.673-2.835c-.669-.892-1.042-1.2-1.983-.292a5.143,5.143,0,0,1-3.853,1.338c-4-.081-8,.122-11.985-.065-5.439-.256-11-.211-16.228-1.622-3.61-.977-7.049-.211-10.537-.625-.831-.1-1.724.146-1.732-1.209-.008-1.3.783-1.318,1.675-1.257,2.454.17,4.908-.211,7.382.247,1.444.264,2.705-1.132,4.287-1.14,1.314-.008,2.616-.466,3.938-.58a214.951,214.951,0,0,1,22.628-.884,6.639,6.639,0,0,1,4.766,1.647c.633.6.949.446,1.383-.211a9.528,9.528,0,0,1,13.315-2.417,13.5,13.5,0,0,0,6.761,2.174c3.249.211,4.616-1.7,3.589-4.786-.953-2.868-2.028-3.492-4.989-3.683-4.563-.3-9.008.929-13.555.815a21.671,21.671,0,0,1-7.491-1.444c-2.9-1.128-5.711-2.474-8.651-3.5a9.347,9.347,0,0,1-3.865-2.288c-2.064-2.259-4.749-3.233-7.5-4.194a25.115,25.115,0,0,1-2.738-1.245c-.543-.268-1.245-.519-.925-1.334.3-.758,1.01-.681,1.594-.483,3.224,1.087,6.477,2.113,9.637,3.362a87.63,87.63,0,0,0,12.342,4.2,23.658,23.658,0,0,0,8.055.012c3.257-.4,6.514-.807,9.742-1.371a31.249,31.249,0,0,1,7.548-.377c8.339.576,16.268,2.3,22.835,8.071,3.005,2.644,6.944,3.4,10.736,4.372,3.03.775,6.072.523,9.1.369a9.176,9.176,0,0,0,7.585-4.826c.909-1.5-.2-2.409-1.217-3.224a29.209,29.209,0,0,0-12.468-5.561c-1.31-.28-2.632-.523-3.942-.795a7.06,7.06,0,0,0-7.714,3.022c-.268.369-.515.572-.949.5a.725.725,0,0,1-.6-.876c.118-1.768.211-3.476,1.671-4.871,4.636-4.433,10.063-5.354,16.252-4.555,2.9.373,5.913,1.046,8.976.235,1.691-.446,3.61.13,5.747-.819a46.148,46.148,0,0,0-5.974-1.363c-4.052-.369-7.138-2.677-10.387-4.721a14.555,14.555,0,0,0-7.37-2.352,36.039,36.039,0,0,0-7.532.349c-.592.11-1.5.3-1.647-.665-.13-.872.5-1.172,1.294-1.428a36.938,36.938,0,0,1,13.526-1.967c1.57.089,3.155-.077,4.725.036,1.756.13,3.521.568,4.514,2.17,1.282,2.068,3.346,2.717,5.439,3.233a24.585,24.585,0,0,0,4.23.3c-1.939-4.056-3.585-8.173-7.175-11-2.795-2.2-5.812-3.9-9.527-3.918-3.464-.016-6.927-.142-10.27,1.05-.612.219-1.3.166-1.407-.7-.105-.823.32-1.168,1.152-1.3,3.658-.588,7.28-1.529,10.959-1.8,5.179-.389,10.314-.422,15.1,2.527a125.54,125.54,0,0,1,13.891,10.282c4.741,3.906,9.56,7.755,15.141,10.4a25.989,25.989,0,0,0,9.957,2.47c5.723.276,11.113-1.055,16.6-2.47,2.693-.694,4.981-2.089,7.556-2.851a27.8,27.8,0,0,1,8.055-1.375c4.656.016,9.3-.1,13.741,1.618a3.887,3.887,0,0,1,.637.2c4.437,2.778,9.616,3.135,14.508,4.421a27.809,27.809,0,0,0,10.221.3,27.138,27.138,0,0,0,10.935-3.869c7.548-4.579,13.891-10.728,20.989-15.891,3.306-2.405,6.757-4.632,10.8-5.548a29.114,29.114,0,0,1,9.71-.134c3.46.393,6.871,1.188,10.314,1.708.921.138,1.61.3,1.4,1.367-.183.945-.921.807-1.6.576-3.744-1.269-7.641-1.2-11.466-.888a14.783,14.783,0,0,0-7.937,3.646c-3.61,2.9-5.4,6.984-7.333,11.174Z" transform="translate(126.917 897.051)" fill="#fff"/>
  </g>
</svg>
