<svg xmlns="http://www.w3.org/2000/svg" width="183.987" height="82.02" viewBox="0 0 183.987 82.02">
  <path id="Intersection_2" data-name="Intersection 2" d="M34.561,16.767c-30.8,26.172-47.309.266-9.6-11.749A82.187,82.187,0,0,0,0,9.51V81.02H107.393a30.787,30.787,0,0,0,13.948-13.938s-21.519,9.349-23.923-2.527c-4.037-19.949,72.707,5.7,85.327-48.485,0,0-51.426,28.49-50.225,11.436.907-12.864,27.529-9.813,27.529-9.813S143.413-3.715,107.52,24.215s-48.827,7.9-40.505-4.2S90.127,7.451,93.175,8.861c.973.454-.661-1.975-4.612-4.4A31.444,31.444,0,0,0,72.041,0C62.391,0,49.727,3.881,34.561,16.767Z" transform="translate(183.487 81.52) rotate(180)" fill="#f9311b" stroke="rgba(0,0,0,0)" stroke-miterlimit="10" stroke-width="1"/>
</svg>
