<svg xmlns="http://www.w3.org/2000/svg" width="183.987" height="82.02" viewBox="0 0 183.987 82.02">
  <path id="Intersection_1" data-name="Intersection 1" d="M-368.131,111.845c-30.8-26.172-47.309-.266-9.6,11.749a82.187,82.187,0,0,1-24.962-4.492V47.592H-295.3A30.787,30.787,0,0,1-281.351,61.53s-21.519-9.349-23.923,2.527c-4.037,19.949,72.707-5.7,85.327,48.485,0,0-51.426-28.49-50.225-11.436.907,12.864,27.529,9.813,27.529,9.813s-16.636,21.408-52.529-6.521-48.827-7.9-40.505,4.2,23.112,12.562,26.16,11.152c.973-.454-.661,1.975-4.612,4.4a31.444,31.444,0,0,1-16.523,4.458C-340.3,128.612-352.965,124.731-368.131,111.845Z" transform="translate(403.191 -47.092)" fill="#f9311b" stroke="rgba(0,0,0,0)" stroke-miterlimit="10" stroke-width="1"/>
</svg>
