<svg xmlns="http://www.w3.org/2000/svg" width="43" height="43" viewBox="0 0 43 43">
  <path id="Icon_awesome-phone-alt" data-name="Icon awesome-phone-alt" d="M41.773,30.386l-9.406-4.031a2.016,2.016,0,0,0-2.352.579L25.85,32.023A31.13,31.13,0,0,1,10.968,17.142l5.089-4.166a2.011,2.011,0,0,0,.579-2.352L12.606,1.219A2.029,2.029,0,0,0,10.3.051L1.562,2.067A2.016,2.016,0,0,0,0,4.031,38.965,38.965,0,0,0,38.969,43a2.016,2.016,0,0,0,1.965-1.562L42.95,32.7a2.04,2.04,0,0,0-1.177-2.318Z" transform="translate(0 0)"/>
</svg>
