<svg xmlns="http://www.w3.org/2000/svg" width="202.531" height="386.361" viewBox="0 0 202.531 386.361">
  <g id="Group_59" data-name="Group 59" transform="translate(-561.386 -846.715)">
    <rect id="Rectangle_43" data-name="Rectangle 43" width="111" height="32" transform="translate(608 1158)"/>
    <g id="Group_37" data-name="Group 37" transform="translate(469.132 -77.355)">
      <g id="noun-ticket-48663" transform="translate(294.786 924.07) rotate(90)">
        <path id="Path_112" data-name="Path 112" d="M1.368,6.386A1.456,1.456,0,0,0,2.737,5.018V1.368A1.456,1.456,0,0,0,1.368,0,1.21,1.21,0,0,0,0,1.368V5.018Q.684,6.386,1.368,6.386Z" transform="translate(291.481 140.951)" fill="none"/>
        <path id="Path_113" data-name="Path 113" d="M1.368,6.386A1.457,1.457,0,0,0,2.737,5.018V1.368A1.456,1.456,0,0,0,1.368,0,1.21,1.21,0,0,0,0,1.368V5.018Q.684,6.386,1.368,6.386Z" transform="translate(291.481 99.441)" fill="none"/>
        <path id="Path_114" data-name="Path 114" d="M1.368,6.386A1.457,1.457,0,0,0,2.737,5.018V1.368A1.456,1.456,0,0,0,1.368,0,1.21,1.21,0,0,0,0,1.368V5.018Q.684,6.386,1.368,6.386Z" transform="translate(291.481 78.914)" fill="none"/>
        <path id="Path_115" data-name="Path 115" d="M1.368,6.386A1.457,1.457,0,0,0,2.737,5.018V1.368A1.456,1.456,0,0,0,1.368,0,1.21,1.21,0,0,0,0,1.368V5.018Q.684,6.386,1.368,6.386Z" transform="translate(291.481 58.387)" fill="none"/>
        <path id="Path_116" data-name="Path 116" d="M1.368,6.386A1.456,1.456,0,0,0,2.737,5.018V1.368A1.456,1.456,0,0,0,1.368,0,1.21,1.21,0,0,0,0,1.368V5.018Q.684,6.386,1.368,6.386Z" transform="translate(291.481 68.879)" fill="none"/>
        <path id="Path_117" data-name="Path 117" d="M1.368,6.386A1.456,1.456,0,0,0,2.737,5.018V1.368A1.456,1.456,0,0,0,1.368,0,1.21,1.21,0,0,0,0,1.368V5.018C.456,5.474.912,6.386,1.368,6.386Z" transform="translate(291.481 120.424)" fill="none"/>
        <path id="Path_118" data-name="Path 118" d="M1.368,6.386A1.457,1.457,0,0,0,2.737,5.018V1.368A1.456,1.456,0,0,0,1.368,0,1.21,1.21,0,0,0,0,1.368V5.018Q.684,6.386,1.368,6.386Z" transform="translate(291.481 130.459)" fill="none"/>
        <path id="Path_119" data-name="Path 119" d="M1.368,6.386A1.457,1.457,0,0,0,2.737,5.018V1.368A1.456,1.456,0,0,0,1.368,0,1.21,1.21,0,0,0,0,1.368V5.018C.456,5.474.912,6.386,1.368,6.386Z" transform="translate(291.481 48.352)" fill="none"/>
        <path id="Path_120" data-name="Path 120" d="M1.368,6.386A1.456,1.456,0,0,0,2.737,5.018V1.368A1.456,1.456,0,0,0,1.368,0,1.21,1.21,0,0,0,0,1.368V5.018Q.684,6.386,1.368,6.386Z" transform="translate(291.481 109.933)" fill="none"/>
        <path id="Path_121" data-name="Path 121" d="M1.368,6.386A1.456,1.456,0,0,0,2.737,5.018V1.368A1.456,1.456,0,0,0,1.368,0,1.21,1.21,0,0,0,0,1.368V5.018Q.684,6.386,1.368,6.386Z" transform="translate(291.481 89.406)" fill="none"/>
        <path id="Path_122" data-name="Path 122" d="M1.368,6.386A1.457,1.457,0,0,0,2.737,5.018V1.368A1.456,1.456,0,0,0,1.368,0,1.21,1.21,0,0,0,0,1.368V5.018Q.684,6.386,1.368,6.386Z" transform="translate(291.481 17.334)" fill="none"/>
        <path id="Path_123" data-name="Path 123" d="M1.368,6.386A1.457,1.457,0,0,0,2.737,5.018V1.368A1.456,1.456,0,0,0,1.368,0,1.21,1.21,0,0,0,0,1.368V5.018Q.684,6.386,1.368,6.386Z" transform="translate(291.481 37.861)" fill="none"/>
        <path id="Path_124" data-name="Path 124" d="M1.368,6.386A1.457,1.457,0,0,0,2.737,5.018V1.368A1.456,1.456,0,0,0,1.368,0,1.21,1.21,0,0,0,0,1.368V5.018Q.684,6.386,1.368,6.386Z" transform="translate(291.481 27.369)" fill="none"/>
        <path id="Path_125" data-name="Path 125" d="M1.368,6.386A1.457,1.457,0,0,0,2.737,5.018V1.368A1.456,1.456,0,0,0,1.368,0,1.21,1.21,0,0,0,0,1.368V5.018Q.684,6.386,1.368,6.386Z" transform="translate(291.481 150.986)" fill="none"/>
        <path id="Path_126" data-name="Path 126" d="M1.368,0A1.457,1.457,0,0,0,0,1.368V5.018A1.457,1.457,0,0,0,1.368,6.386,1.21,1.21,0,0,0,2.737,5.018V1.368A1.21,1.21,0,0,0,1.368,0Z" transform="translate(291.481 192.952)" fill="none"/>
        <path id="Path_127" data-name="Path 127" d="M1.368,6.386A1.457,1.457,0,0,0,2.737,5.018V1.368A1.456,1.456,0,0,0,1.368,0,1.21,1.21,0,0,0,0,1.368V5.018Q.684,6.386,1.368,6.386Z" transform="translate(291.481 6.842)" fill="none"/>
        <path id="Path_128" data-name="Path 128" d="M327.517,0H29.194A29.4,29.4,0,0,0,0,29.194v118.6a29.4,29.4,0,0,0,29.194,29.194H327.061a29.4,29.4,0,0,0,29.194-29.194V29.194C356.711,13.228,343.482,0,327.517,0ZM46.984,174.706H29.194A26.962,26.962,0,0,1,2.281,147.793V29.194A26.962,26.962,0,0,1,29.194,2.281h17.79Zm260.463,0H49.264V2.281H307.446Zm46.984-26.913a26.962,26.962,0,0,1-26.913,26.913h-17.79V2.281h17.79A26.674,26.674,0,0,1,354.43,29.194Z" transform="translate(14.597 14.597)" fill="none"/>
        <path id="Path_129" data-name="Path 129" d="M1.368,6.386A1.456,1.456,0,0,0,2.737,5.018V1.368A1.456,1.456,0,0,0,1.368,0,1.21,1.21,0,0,0,0,1.368V5.018Q.684,6.386,1.368,6.386Z" transform="translate(291.481 161.478)" fill="none"/>
        <path id="Path_130" data-name="Path 130" d="M1.368,6.386A1.456,1.456,0,0,0,2.737,5.018V1.368A1.456,1.456,0,0,0,1.368,0,1.21,1.21,0,0,0,0,1.368V5.018Q.684,6.386,1.368,6.386Z" transform="translate(291.481 182.005)" fill="none"/>
        <path id="Path_131" data-name="Path 131" d="M1.368,6.386A1.457,1.457,0,0,0,2.737,5.018V1.368A1.456,1.456,0,0,0,1.368,0,1.21,1.21,0,0,0,0,1.368V5.018Q.684,6.386,1.368,6.386Z" transform="translate(291.481 171.513)" fill="none"/>
        <path id="Path_132" data-name="Path 132" d="M17.79,0H0V172.425H17.79A26.962,26.962,0,0,0,44.7,145.512V26.913A27.262,27.262,0,0,0,17.79,0Z" transform="translate(324.324 16.878)"/>
        <path id="Path_133" data-name="Path 133" d="M0,26.913v118.6a26.962,26.962,0,0,0,26.913,26.913H44.7V0H26.913A27.262,27.262,0,0,0,0,26.913Z" transform="translate(16.878 16.878)"/>
        <path id="Path_134" data-name="Path 134" d="M385.9,28.738v-7.3A21.414,21.414,0,0,1,364.465,0H294.218V1.825a1.456,1.456,0,0,1-1.368,1.368,1.21,1.21,0,0,1-1.368-1.368V0H21.439A21.414,21.414,0,0,1,0,21.439v7.3a5.062,5.062,0,0,1,5.018,5.018c0,2.737-2.281,5.474-5.018,5.474v6.842a5.062,5.062,0,0,1,5.018,5.018A5.062,5.062,0,0,1,0,56.107v6.842a5.062,5.062,0,0,1,5.018,5.018A5.062,5.062,0,0,1,0,72.984v6.842a5.062,5.062,0,0,1,5.018,5.018A5.062,5.062,0,0,1,0,89.862V96.7a5.062,5.062,0,0,1,5.018,5.018A5.062,5.062,0,0,1,0,106.739v6.842A5.062,5.062,0,0,1,5.018,118.6,5.062,5.062,0,0,1,0,123.617v6.842a5.062,5.062,0,0,1,5.018,5.018A5.062,5.062,0,0,1,0,140.495v6.842a5.062,5.062,0,0,1,5.018,5.018A5.062,5.062,0,0,1,0,157.372v6.842a5.062,5.062,0,0,1,5.018,5.018A5.062,5.062,0,0,1,0,174.25v6.842a21.414,21.414,0,0,1,21.439,21.439h270.5v-1.825a1.456,1.456,0,0,1,1.368-1.368,1.21,1.21,0,0,1,1.368,1.368v1.825h70.247a21.414,21.414,0,0,1,21.439-21.439V174.25a5.018,5.018,0,0,1,0-10.035v-6.842a5.018,5.018,0,0,1,0-10.035v-6.842a5.018,5.018,0,0,1,0-10.035V125.9a5.018,5.018,0,0,1,0-10.035V109.02a5.018,5.018,0,0,1,0-10.035V92.143a5.018,5.018,0,0,1,0-10.035V75.265a5.018,5.018,0,0,1,0-10.035V58.387a5.018,5.018,0,0,1,0-10.035V39.229a5.062,5.062,0,0,1-5.018-5.018A4.6,4.6,0,0,1,385.9,28.738ZM291.937,8.667A1.456,1.456,0,0,1,293.306,7.3a1.21,1.21,0,0,1,1.368,1.368v3.649a1.457,1.457,0,0,1-1.368,1.368,1.21,1.21,0,0,1-1.368-1.368Zm2.281,188.847a1.457,1.457,0,0,1-1.368,1.368,1.21,1.21,0,0,1-1.368-1.368v-3.649a1.457,1.457,0,0,1,1.368-1.368,1.21,1.21,0,0,1,1.368,1.368Zm77.09-35.124a29.4,29.4,0,0,1-29.194,29.194H43.791A29.4,29.4,0,0,1,14.6,162.39V43.791A29.4,29.4,0,0,1,43.791,14.6H341.658a29.4,29.4,0,0,1,29.194,29.194l.456,118.6Z" transform="translate(0)"/>
        <path id="Path_135" data-name="Path 135" d="M0,0V172.425H258.182V0ZM147.337,144.144l-37.861-27.369L71.616,144.144,86.213,99.9,48.352,72.528H94.88l14.6-44.247,14.6,44.247H170.6L132.74,99.9Zm83.02,26a1.368,1.368,0,0,1-2.737,0V166.5a1.368,1.368,0,0,1,2.737,0Zm0-10.035a1.368,1.368,0,0,1-2.737,0V156.46a1.368,1.368,0,0,1,2.737,0Zm0-10.491a1.368,1.368,0,0,1-2.737,0v-3.649a1.368,1.368,0,0,1,2.737,0Zm0-10.035a1.368,1.368,0,1,1-2.737,0v-3.649a1.368,1.368,0,0,1,2.737,0Zm0-10.491a1.368,1.368,0,0,1-2.737,0v-3.649a1.368,1.368,0,0,1,2.737,0Zm0-10.492a1.368,1.368,0,0,1-2.737,0V114.95a1.368,1.368,0,0,1,2.737,0Zm0-10.035a1.368,1.368,0,0,1-2.737,0v-3.649a1.368,1.368,0,0,1,2.737,0Zm0-10.492a1.368,1.368,0,0,1-2.737,0V94.423a1.368,1.368,0,0,1,2.737,0Zm0-10.035a1.368,1.368,0,0,1-2.737,0V84.388a1.368,1.368,0,0,1,2.737,0Zm0-10.492a1.368,1.368,0,0,1-2.737,0V73.9a1.368,1.368,0,0,1,2.737,0Zm0-10.035a1.368,1.368,0,0,1-2.737,0V63.861a1.368,1.368,0,0,1,2.737,0Zm0-10.491a1.368,1.368,0,0,1-2.737,0V53.37a1.368,1.368,0,0,1,2.737,0Zm0-10.492a1.368,1.368,0,0,1-2.737,0V42.878a1.368,1.368,0,0,1,2.737,0Zm0-10.035a1.368,1.368,0,0,1-2.737,0V32.843a1.368,1.368,0,0,1,2.737,0Zm0-10.491a1.368,1.368,0,0,1-2.737,0V22.351a1.368,1.368,0,0,1,2.737,0Zm0-10.035a1.368,1.368,0,0,1-2.737,0V12.316a1.368,1.368,0,0,1,2.737,0Zm0-10.491a1.368,1.368,0,0,1-2.737,0V1.825a1.368,1.368,0,0,1,2.737,0Z" transform="translate(63.861 16.878)"/>
        <rect id="Rectangle_42" data-name="Rectangle 42" width="144" height="134" transform="translate(102.93 40.786)"/>
      </g>
    </g>
    <g id="Group_42" data-name="Group 42" transform="translate(652.673 944.001)">
      <text id="_150" data-name="$150" transform="translate(-34.173 255.049)" fill="red" font-size="80" font-family="Fairview-SmallCaps, Fairview Small Caps"><tspan x="0" y="0">$150</tspan></text>
    </g>
    <text id="V.I.P._PASS" data-name="V.I.P. 
PASS" transform="translate(580.691 875.467)" fill="#fff" font-size="35" font-family="AlternateGothicATF, Alternate Gothic ATF"><tspan x="53.628" y="26">V.I.P. </tspan><tspan x="50.618" y="66">PASS</tspan></text>
    <text id="Standard_pass_exclusive_dinner_with_the_devil_" data-name="Standard pass, exclusive dinner with the devil, &amp;" transform="translate(588.271 963.314)" fill="#fff" font-size="25" font-family="AlternateGothicATF, Alternate Gothic ATF"><tspan x="16.881" y="19">Standard pass, </tspan><tspan x="10.506" y="47">exclusive dinner </tspan><tspan x="13.318" y="75">with the devil, &amp;</tspan></text>
    <text id="_a_fresh_skeleton_wearing_your_free_tee-shirts." data-name=" a fresh skeleton wearing your free tee-shirts." transform="translate(588.271 1043.55)" fill="#fff" font-size="25" font-family="AlternateGothicATF, Alternate Gothic ATF"><tspan x="3.156" y="25"> </tspan><tspan y="25" font-size="30" font-family="Chiller-Regular, Chiller">a fresh skeleton </tspan><tspan x="19.94" y="50" font-size="30" font-family="Chiller-Regular, Chiller">wearing your </tspan><tspan x="6.155" y="75" font-size="30" font-family="Chiller-Regular, Chiller">free tee-shirts.</tspan></text>
  </g>
</svg>
